inDegrees=yes
name=flex_l_res.mot
DataType=double
version=3
OpenSimVersion=4.4-2022-07-23-0e9fedc
endheader
time	pelvis_tilt	pelvis_list	pelvis_rotation	pelvis_tx	pelvis_ty	pelvis_tz	hip_flexion_r	hip_adduction_r	hip_rotation_r	knee_angle_r	knee_angle_r_beta	ankle_angle_r	subtalar_angle_r	mtp_angle_r	hip_flexion_l	hip_adduction_l	hip_rotation_l	knee_angle_l	knee_angle_l_beta	ankle_angle_l	subtalar_angle_l	mtp_angle_l	lumbar_extension	lumbar_bending	lumbar_rotation	arm_flex_r	arm_add_r	arm_rot_r	elbow_flex_r	pro_sup_r	wrist_flex_r	wrist_dev_r	arm_flex_l	arm_add_l	arm_rot_l	elbow_flex_l	pro_sup_l	wrist_flex_l	wrist_dev_l
25	-0.378326692777004	0.5537974907053036	89.73230331397889	0	0.9399999999999999	0	45.02802810173259	-9.969334809721316	0	59.34446689011963	1.035756340073348	-4.979073302496869	0	0	45.02802810173259	-9.969334809721316	0	59.34446689011963	1.035756340073348	-4.979073302496869	0	0	-0.8520231093074158	-1.195805508009309	0.9548208480575892	0	-12.99941801608568	0	75.28869080879963	45.03113062705004	0	0	-1.524719701482111	-2.124788506091457	-8.585292993905217	43.2150106218367	45.03113062705004	0	0
26	-0.3771508501486545	0.5525912643779821	89.72647416840458	0	0.9399999999999999	0	45.02787496381664	-9.969765774967914	0	59.34791203888873	1.035816469262589	-4.979432022219147	0	0	45.02787496381664	-9.969765774967914	0	59.34791203888873	1.035816469262589	-4.979432022219147	0	0	-0.8512758451304651	-1.195849337327417	0.9568227656140232	0	-13.0059037246199	0	75.28711442837121	45.03076349155253	0	0	-0.05252027920258649	-1.982566038260376	-6.38242040902123	34.67646000210546	45.03076349155253	0	0
27	-0.3801420155763134	0.5460926524028339	89.72751164298298	0	0.9399999999999999	0	45.02778012064387	-9.970026316888383	0	59.35007203538786	1.035854168313331	-4.979647645413484	0	0	45.02778012064387	-9.970026316888383	0	59.35007203538786	1.035854168313331	-4.979647645413484	0	0	-0.8412882275930176	-1.194716098167437	0.9548799958163277	0	-13.00996048898378	0	75.28613812632955	45.03054043350706	0	0	0.5361025242146176	-2.067329566663444	-5.180046039696409	26.78938282859212	45.03054043350706	0	0
28	-0.3804758658694942	0.5545104068149165	89.72959360159125	0	0.9399999999999999	0	45.02771988010122	-9.970202213167914	0	59.35140621878212	1.035877454206386	-4.9797956486149	0	0	45.02771988010122	-9.970202213167914	0	59.35140621878212	1.035877454206386	-4.9797956486149	0	0	-0.8565168488783987	-1.197050129055551	0.9553751043888556	0	-13.0124807236429	0	75.28551801825634	45.03039187326974	0	0	1.087451334648355	-0.930046783514168	-3.801822305973924	20.20909422720353	45.03039187326974	0	0
29	-0.3750476895667362	0.5558360483226544	89.72696258600982	0	0.9399999999999999	0	45.02767240596439	-9.97034781907227	0	59.35242998501747	1.035895322297963	-4.979919602203505	0	0	45.02767240596439	-9.97034781907227	0	59.35242998501747	1.035895322297963	-4.979919602203505	0	0	-0.8516012069500245	-1.19527800341809	0.9569435032298356	0	-13.01442675942043	0	75.28502932546753	45.03027012973363	0	0	1.510658928148948	-0.9942758994500224	-1.897791022675591	12.57749879919465	45.03027012973363	0	0
30	-0.3794491277945862	0.5483663165598266	89.72735884920743	0	0.9399999999999999	0	45.02765650663626	-9.970412583508962	0	59.35271824496981	1.035900353383234	-4.979978095176429	0	0	45.02765650663626	-9.970412583508962	0	59.35271824496981	1.035900353383234	-4.979978095176429	0	0	-0.8395626415159699	-1.200871968957473	0.9562488880642313	0	-13.01499209605768	0	75.28486565894606	45.030218780905	0	0	1.178422488198222	0.3096380064559809	-1.04227606001766	4.893408508247346	45.030218780905	0	0
31	-0.3869154019135424	0.5266198625276195	89.7428563962638	0	0.9399999999999999	0	45.02768493643908	-9.970360523970744	0	59.3519911545906	1.035887663262157	-4.97994133235848	0	0	45.02768493643908	-9.970360523970744	0	59.3519911545906	1.035887663262157	-4.97994133235848	0	0	-0.7974611751178613	-1.21644406280379	0.9269453731049826	0	-13.0136411876928	0	75.28515830995015	45.03026854949473	0	0	0.3276720377605496	0.3274235683990548	-0.3654773068448723	0.2709439724851082	45.03026854949473	0	0
32	-0.3777231302996892	0.5565318259029081	89.72943274096613	0	0.9399999999999999	0	45.0276274261091	-9.970519164944736	0	59.35329664541376	1.035910448375375	-4.980072678727049	0	0	45.0276274261091	-9.970519164944736	0	59.35329664541376	1.035910448375375	-4.980072678727049	0	0	-0.8526072508162601	-1.195955503216503	0.9512987380535541	0	-13.0160965354263	0	75.28456630681193	45.0301328216468	0	0	-1.761864097511434	-0.06565353545858392	0.08487884614407426	0.04892670281088299	45.0301328216468	0	0
